<svg width="1010" height="330" viewBox="0 0 101 33" xmlns="http://www.w3.org/2000/svg" fill="none">
        <path opacity="0.3"
            d="m1.09722,17.52492l14.26619,8.2353c0.2912,0.1677 0.6214,0.2559 0.9575,0.2559c0.3361,0 0.6663,-0.0882 0.9576,-0.2559l15.7794,-9.1101l-16.7443,-9.66052l-15.22267,8.78992c-0.15264,0.0892 -0.27914,0.2169 -0.36685,0.3704c-0.08771,0.1535 -0.13354,0.3273 -0.13291,0.5041c0.00064,0.1768 0.04772,0.3503 0.13653,0.5031c0.08881,0.1529 0.21624,0.2797 0.36951,0.3678z"
            fill="#FF6528" />
        <path
            d="m26.72841,22.46862l0,4.1857l-7.1791,4.1375l-0.5003,0.2867l-2.1223,1.2264c-0.3063,0.1773 -0.654,0.2707 -1.0079,0.2707c-0.3539,0 -0.7015,-0.0934 -1.0077,-0.2707l-2.1224,-1.2264l-0.5023,-0.2867l-7.32561,-4.2422l0,-4.1856l7.82581,4.5309l2.1245,1.2243c0.3064,0.1769 0.654,0.27 1.0077,0.27c0.3539,0 0.7014,-0.0931 1.0079,-0.27l2.1223,-1.2243l7.6794,-4.4263z"
            fill="#021C41" />
        <path opacity="0.5"
            d="m0.79402,17.34932l14.32889,8.273c0.3484,0.2016 0.7514,0.2884 1.1518,0.2482c0.4004,-0.0402 0.7781,-0.2054 1.0794,-0.4721l13.3955,-11.9292l-16.7443,-9.6626l-13.39547,11.9291c-0.11577,0.1076 -0.20464,0.2409 -0.25946,0.3891c-0.05481,0.1483 -0.07402,0.3073 -0.0561,0.4643c0.01792,0.157 0.07248,0.3076 0.15929,0.4396c0.0868,0.1321 0.20342,0.2419 0.34045,0.3206z"
            fill="#FF6528" />
        <path
            d="m0.79332,17.34962l13.97309,8.0679c0.4207,0.2401 0.9166,0.3122 1.3882,0.2019c0.4717,-0.1102 0.8842,-0.3946 1.1549,-0.7963l9.7514,-14.58705l-16.7443,-9.66053l-9.68864,15.14798c-0.11913,0.1061 -0.2114,0.239 -0.26922,0.3876c-0.05783,0.1487 -0.07957,0.309 -0.06343,0.4677c0.01614,0.1587 0.06969,0.3113 0.15626,0.4453c0.08657,0.134 0.20369,0.2456 0.34174,0.3255z"
            fill="#FF6528" />
        <path
            d="m45.80212,18.79499c0,0.252 -0.03,0.54 -0.09,0.864l-6.84,0c0.132,0.612 0.42,1.098 0.864,1.458c0.456,0.36 1.014,0.54 1.674,0.54c0.492,0 0.936,-0.108 1.332,-0.324c0.396,-0.216 0.72,-0.522 0.972,-0.918l1.566,1.314c-0.42,0.6 -0.96,1.062 -1.62,1.386c-0.66,0.324 -1.386,0.486 -2.178,0.486c-0.9,0 -1.716,-0.204 -2.448,-0.612c-0.732,-0.408 -1.308,-0.972 -1.728,-1.692c-0.42,-0.72 -0.63,-1.524 -0.63,-2.412c0,-0.876 0.198,-1.674 0.594,-2.394c0.408,-0.732 0.96,-1.302 1.656,-1.71c0.708,-0.42 1.488,-0.63 2.34,-0.63c0.84,0 1.602,0.21 2.286,0.63c0.696,0.408 1.242,0.972 1.638,1.692c0.408,0.708 0.612,1.482 0.612,2.322zm-4.554,-2.664c-0.564,0 -1.05,0.162 -1.458,0.486c-0.408,0.312 -0.696,0.738 -0.864,1.278l4.698,0c-0.168,-0.54 -0.462,-0.966 -0.882,-1.278c-0.42,-0.324 -0.918,-0.486 -1.494,-0.486zm10.5511,7.488c-1.38,0 -2.55,-0.342 -3.51,-1.026c-0.96,-0.696 -1.566,-1.614 -1.818,-2.754l2.07,-0.774c0.168,0.756 0.54,1.356 1.116,1.8c0.576,0.432 1.302,0.648 2.178,0.648c0.816,0 1.464,-0.174 1.944,-0.522c0.492,-0.36 0.738,-0.84 0.738,-1.44c0,-0.432 -0.138,-0.78 -0.414,-1.044c-0.264,-0.264 -0.684,-0.468 -1.26,-0.612l-2.448,-0.594c-0.984,-0.24 -1.752,-0.678 -2.304,-1.314c-0.552,-0.636 -0.828,-1.404 -0.828,-2.304c0,-0.756 0.198,-1.434 0.594,-2.034c0.396,-0.612 0.948,-1.086 1.656,-1.422c0.708,-0.336 1.512,-0.504 2.412,-0.504c1.224,0 2.244,0.312 3.06,0.936c0.828,0.612 1.362,1.458 1.602,2.538l-2.052,0.756c-0.132,-0.672 -0.438,-1.194 -0.918,-1.566c-0.468,-0.372 -1.062,-0.558 -1.782,-0.558c-0.708,0 -1.278,0.168 -1.71,0.504c-0.432,0.336 -0.648,0.786 -0.648,1.35c0,0.804 0.492,1.326 1.476,1.566l2.448,0.594c1.08,0.264 1.902,0.714 2.466,1.35c0.576,0.624 0.864,1.398 0.864,2.322c0,0.792 -0.21,1.5 -0.63,2.124c-0.408,0.624 -0.99,1.11 -1.746,1.458c-0.744,0.348 -1.596,0.522 -2.556,0.522zm10.6844,0c-0.852,0 -1.644,-0.21 -2.376,-0.63c-0.72,-0.432 -1.296,-1.014 -1.728,-1.746c-0.42,-0.732 -0.63,-1.524 -0.63,-2.376c0,-0.852 0.21,-1.638 0.63,-2.358c0.432,-0.72 1.008,-1.29 1.728,-1.71c0.732,-0.432 1.524,-0.648 2.376,-0.648c0.96,0 1.83,0.27 2.61,0.81c0.78,0.528 1.35,1.23 1.71,2.106l-1.89,0.9c-0.18,-0.54 -0.492,-0.972 -0.936,-1.296c-0.444,-0.324 -0.942,-0.486 -1.494,-0.486c-0.468,0 -0.906,0.126 -1.314,0.378c-0.396,0.24 -0.714,0.564 -0.954,0.972c-0.228,0.408 -0.342,0.852 -0.342,1.332c0,0.492 0.114,0.948 0.342,1.368c0.24,0.408 0.558,0.738 0.954,0.99c0.408,0.24 0.846,0.36 1.314,0.36c0.564,0 1.062,-0.162 1.494,-0.486c0.444,-0.336 0.756,-0.78 0.936,-1.332l1.89,0.9c-0.348,0.876 -0.918,1.59 -1.71,2.142c-0.78,0.54 -1.65,0.81 -2.61,0.81zm9.9617,-9.468c0.708,0 1.338,0.192 1.89,0.576c0.564,0.372 1.002,0.864 1.314,1.476c0.312,0.6 0.468,1.236 0.468,1.908l0,5.31l-2.124,0l0,-5.202c0,-0.564 -0.198,-1.044 -0.594,-1.44c-0.384,-0.396 -0.852,-0.594 -1.404,-0.594c-0.396,0 -0.756,0.108 -1.08,0.324c-0.312,0.204 -0.552,0.48 -0.72,0.828l0,6.084l-2.124,0l0,-14.03998l2.124,0l0,5.66998c0.624,-0.6 1.374,-0.9 2.25,-0.9zm9.7411,9.468c-0.852,0 -1.644,-0.21 -2.376,-0.63c-0.732,-0.432 -1.314,-1.014 -1.746,-1.746c-0.42,-0.732 -0.63,-1.524 -0.63,-2.376c0,-0.852 0.21,-1.638 0.63,-2.358c0.432,-0.72 1.014,-1.29 1.746,-1.71c0.732,-0.432 1.524,-0.648 2.376,-0.648c0.852,0 1.644,0.216 2.376,0.648c0.732,0.42 1.314,0.996 1.746,1.728c0.432,0.72 0.648,1.5 0.648,2.34c0,0.852 -0.216,1.644 -0.648,2.376c-0.42,0.732 -0.996,1.314 -1.728,1.746c-0.732,0.42 -1.53,0.63 -2.394,0.63zm0,-2.034c0.468,0 0.906,-0.12 1.314,-0.36c0.408,-0.252 0.732,-0.582 0.972,-0.99c0.24,-0.42 0.36,-0.87 0.36,-1.35c0,-0.48 -0.12,-0.924 -0.36,-1.332c-0.24,-0.42 -0.564,-0.75 -0.972,-0.99c-0.408,-0.252 -0.846,-0.378 -1.314,-0.378c-0.468,0 -0.906,0.12 -1.314,0.36c-0.396,0.24 -0.714,0.57 -0.954,0.99c-0.24,0.408 -0.36,0.852 -0.36,1.332c0,0.492 0.114,0.948 0.342,1.368c0.24,0.408 0.558,0.738 0.954,0.99c0.408,0.24 0.852,0.36 1.332,0.36zm10.361,2.034c-0.852,0 -1.644,-0.21 -2.376,-0.63c-0.732,-0.432 -1.314,-1.014 -1.746,-1.746c-0.42,-0.732 -0.63,-1.524 -0.63,-2.376c0,-0.852 0.21,-1.638 0.63,-2.358c0.432,-0.72 1.014,-1.29 1.746,-1.71c0.732,-0.432 1.524,-0.648 2.376,-0.648c0.852,0 1.644,0.216 2.376,0.648c0.7317,0.42 1.3137,0.996 1.7457,1.728c0.432,0.72 0.648,1.5 0.648,2.34c0,0.852 -0.216,1.644 -0.648,2.376c-0.42,0.732 -0.996,1.314 -1.7277,1.746c-0.732,0.42 -1.53,0.63 -2.394,0.63zm0,-2.034c0.468,0 0.906,-0.12 1.314,-0.36c0.408,-0.252 0.732,-0.582 0.972,-0.99c0.2397,-0.42 0.3597,-0.87 0.3597,-1.35c0,-0.48 -0.12,-0.924 -0.3597,-1.332c-0.24,-0.42 -0.564,-0.75 -0.972,-0.99c-0.408,-0.252 -0.846,-0.378 -1.314,-0.378c-0.468,0 -0.906,0.12 -1.314,0.36c-0.396,0.24 -0.714,0.57 -0.954,0.99c-0.24,0.408 -0.36,0.852 -0.36,1.332c0,0.492 0.114,0.948 0.342,1.368c0.24,0.408 0.558,0.738 0.954,0.99c0.408,0.24 0.852,0.36 1.332,0.36zm8.3087,1.836l-2.124,0l0,-14.03998l2.124,0l0,14.03998z"
            fill="#021C41" />
</svg>